<?xml version="1.0" encoding="UTF-8" standalone="no"?>
<!-- Created with Inkscape (http://www.inkscape.org/) -->

<svg
   version="1.1"
   id="svg2"
   width="1341.0267"
   height="596.86267"
   viewBox="0 0 1341.0267 596.86267"
   sodipodi:docname="SCGB_2023_Hoz_GB_W.ai"
   xmlns:inkscape="http://www.inkscape.org/namespaces/inkscape"
   xmlns:sodipodi="http://sodipodi.sourceforge.net/DTD/sodipodi-0.dtd"
   xmlns="http://www.w3.org/2000/svg"
   xmlns:svg="http://www.w3.org/2000/svg">
  <defs
     id="defs6">
    <clipPath
       clipPathUnits="userSpaceOnUse"
       id="clipPath16">
      <path
         d="M 0,447.647 H 1005.77 V 0 H 0 Z"
         id="path14" />
    </clipPath>
  </defs>
  <sodipodi:namedview
     id="namedview4"
     pagecolor="#ffffff"
     bordercolor="#000000"
     borderopacity="0.25"
     inkscape:showpageshadow="2"
     inkscape:pageopacity="0.0"
     inkscape:pagecheckerboard="0"
     inkscape:deskcolor="#d1d1d1" />
  <g
     id="g8"
     inkscape:groupmode="layer"
     inkscape:label="SCGB_2023_Hoz_GB_W"
     transform="matrix(1.3333333,0,0,-1.3333333,0,596.86267)">
    <g
       id="g10">
      <g
         id="g12"
         clip-path="url(#clipPath16)">
        <g
           id="g18"
           transform="translate(886.7336,322.6063)">
          <path
             d="M 0,0 H 3.074 C 5.139,0 6.928,0.275 6.928,2.799 6.928,5.001 4.91,5.368 3.12,5.368 H 0 Z m -3.487,8.029 h 6.974 c 4.497,0 6.929,-1.56 6.929,-5.505 0,-3.212 -1.836,-4.772 -4.91,-5.048 l 5.047,-8.213 H 6.974 L 2.111,-2.661 H 0 v -8.076 h -3.487 z m 18.903,-9.452 c 0,7.755 -5.597,13.352 -12.525,13.352 -6.929,0 -12.526,-5.597 -12.526,-13.352 0,-7.754 5.597,-13.352 12.526,-13.352 6.928,0 12.525,5.598 12.525,13.352 m -29.09,0 c 0,9.132 7.434,16.564 16.565,16.564 9.13,0 16.564,-7.432 16.564,-16.564 0,-9.13 -7.434,-16.564 -16.564,-16.564 -9.131,0 -16.565,7.434 -16.565,16.564"
             style="fill:#ffffff;fill-opacity:1;fill-rule:nonzero;stroke:none"
             id="path20" />
        </g>
        <g
           id="g22"
           transform="translate(367.7613,202.2066)">
          <path
             d="M 0,0 17.67,-15.144 H 32.423 V 92.663 H 0 Z"
             style="fill:#ffffff;fill-opacity:1;fill-rule:nonzero;stroke:none"
             id="path24" />
        </g>
        <g
           id="g26"
           transform="translate(502.0432,276.1091)">
          <path
             d="m 0,0 c 19.826,0 39.857,-11.47 39.857,-11.47 l 6.878,20.793 c 0,0 -23.274,13.363 -47.893,13.363 -40.537,0 -68.253,-25.882 -68.253,-57.634 0,-31.752 27.716,-57.634 68.253,-57.634 24.619,0 47.893,13.363 47.893,13.363 l -6.878,20.794 c 0,0 -20.031,-11.471 -39.857,-11.471 -23.744,0 -40.283,15.647 -40.283,34.948 C -40.283,-15.647 -23.744,0 0,0"
             style="fill:#ffffff;fill-opacity:1;fill-rule:nonzero;stroke:none"
             id="path28" />
        </g>
        <path
           d="m 400.184,332.379 h -32.423 v -26.68 h 32.423 z"
           style="fill:#ffffff;fill-opacity:1;fill-rule:nonzero;stroke:none"
           id="path30" />
        <g
           id="g32"
           transform="translate(231.1249,332.3793)">
          <path
             d="M 0,0 V -145.316 H 32.422 V -91.401 0 Z"
             style="fill:#ffffff;fill-opacity:1;fill-rule:nonzero;stroke:none"
             id="path34" />
        </g>
        <g
           id="g36"
           transform="translate(820.213,206.2136)">
          <path
             d="m 0,0 c -23.744,0 -41.295,15.647 -41.295,34.948 0,19.301 17.551,34.947 41.295,34.947 23.745,0 40.283,-15.646 40.283,-34.947 C 40.283,15.647 23.745,0 0,0 m 1.158,92.582 c -17.162,0 -30.669,-6.146 -40.686,-14.653 v 48.237 H -71.951 V -19.151 h 25.034 l 5.622,15.375 c 6.137,-9.776 25.291,-18.91 42.453,-18.91 40.537,0 68.253,25.882 68.253,57.634 0,31.752 -28.059,57.634 -68.253,57.634"
             style="fill:#ffffff;fill-opacity:1;fill-rule:nonzero;stroke:none"
             id="path38" />
        </g>
        <path
           d="m 559.302,187.063 h 32.422 v 145.316 h -32.422 z"
           style="fill:#ffffff;fill-opacity:1;fill-rule:nonzero;stroke:none"
           id="path40" />
        <g
           id="g42"
           transform="translate(701.2794,241.1613)">
          <path
             d="m 0,0 c 0,-19.117 -16.138,-34.639 -39.511,-34.934 -22.024,0.292 -22.404,8.881 -22.404,27.849 V 7.198 53.708 H -94.338 V 7.198 -7.085 c 0,-14.164 1.815,-30.692 13.153,-40.412 8.178,-7.012 19.111,-9.156 29.483,-9.835 11.021,-0.721 21.709,-0.101 32.136,3.918 6.108,2.354 12.578,5.836 17.344,10.601 0.476,0.475 3.585,3.396 3.332,4.089 0,-0.001 5.621,-15.374 5.621,-15.374 H 31.765 V 53.708 L 0,53.708 Z"
             style="fill:#ffffff;fill-opacity:1;fill-rule:nonzero;stroke:none"
             id="path44" />
        </g>
        <g
           id="g46"
           transform="translate(355.9814,294.8695)">
          <path
             d="m 0,0 h -36.475 l -55.959,-53.892 62.896,-53.915 H 12.9 l -65.872,56.454 z"
             style="fill:#ffffff;fill-opacity:1;fill-rule:nonzero;stroke:none"
             id="path48" />
        </g>
        <g
           id="g50"
           transform="translate(182.0051,252.7972)">
          <path
             d="m 0,0 c -9.1,2.744 -31.087,7.915 -30.712,15.511 1.174,15.06 34.441,10.345 54.261,6.269 l 6.938,20.612 c -12.719,1.941 -28.952,3.76 -38.539,3.607 -24.714,-0.16 -53.242,-6.581 -54.049,-32.321 0.758,-36.383 69.893,-31.359 72.057,-50.24 0,-3.277 -2.041,-6.041 -6.241,-8.451 -15.679,-8.193 -41.387,-2.517 -62.297,4.273 l -7.277,-21.617 c 17.705,-4.206 37.721,-6.978 50.414,-6.913 24.669,-0.064 56.978,8.518 57.828,34.446 C 42.383,-14.031 15.826,-4.773 0,0"
             style="fill:#ffffff;fill-opacity:1;fill-rule:nonzero;stroke:none"
             id="path52" />
        </g>
        <g
           id="g54"
           transform="translate(140.7968,133.6997)">
          <path
             d="m 0,0 c 0,3.659 -2.287,5.54 -6.201,5.54 -3.964,0 -6.201,-1.881 -6.201,-5.54 0,-3.66 2.237,-5.54 6.201,-5.54 C -2.287,-5.54 0,-3.66 0,0 m -10.572,-16.824 c -2.135,-0.864 -3.558,-2.287 -3.558,-4.321 0,-2.337 1.932,-3.709 7.269,-3.709 6.912,0 9.149,1.625 9.149,4.32 0,1.931 -1.271,2.693 -4.27,2.948 z M 6.963,6.506 c -1.728,0 -3.405,0 -5.133,-0.102 1.83,-1.627 2.694,-4.015 2.694,-6.353 0,-5.54 -4.016,-9.353 -10.725,-9.353 -1.83,0 -3.456,0.254 -4.828,0.712 -0.712,-0.509 -1.118,-1.22 -1.118,-1.931 0,-1.271 0.863,-1.983 3.151,-2.186 l 8.234,-0.712 c 4.472,-0.406 7.522,-2.287 7.522,-6.709 0,-5.286 -5.134,-8.539 -13.621,-8.539 -7.726,0 -11.742,2.338 -11.742,6.761 0,2.896 1.678,5.082 4.372,6.403 -1.525,1.067 -2.338,2.39 -2.338,4.066 0,1.78 0.762,3.304 2.439,4.575 -1.829,1.627 -2.795,3.914 -2.795,6.811 0,5.54 3.964,9.352 10.724,9.352 1.118,0 2.135,-0.153 3.05,-0.305 3.507,1.118 6.963,1.678 10.114,1.678 z"
             style="fill:#ffffff;fill-opacity:1;fill-rule:nonzero;stroke:none"
             id="path56" />
        </g>
        <g
           id="g58"
           transform="translate(166.9452,142.6958)">
          <path
             d="m 0,0 v -4.625 c -0.915,0.305 -1.779,0.406 -2.847,0.406 -3.151,0 -5.692,-1.677 -7.573,-4.574 v -18.399 h -4.778 v 26.684 h 4.117 l 0.509,-3.354 c 2.236,2.947 5.286,4.167 8.234,4.167 C -1.576,0.305 -0.661,0.203 0,0"
             style="fill:#ffffff;fill-opacity:1;fill-rule:nonzero;stroke:none"
             id="path60" />
        </g>
        <g
           id="g62"
           transform="translate(172.5571,131.2085)">
          <path
             d="M 0,0 H 14.537 C 14.283,5.286 11.894,7.625 7.675,7.625 3.609,7.625 0.661,4.981 0,0 M 19.314,-1.423 V -3.964 H -0.051 c 0.509,-5.286 3.609,-8.234 9.505,-8.234 3.101,0 5.54,0.458 8.437,1.728 v -4.422 c -2.948,-1.067 -5.388,-1.576 -9.2,-1.576 -8.894,0 -13.621,5.236 -13.621,14.029 0,8.488 4.828,14.231 12.707,14.231 7.42,0 11.537,-4.523 11.537,-13.215"
             style="fill:#ffffff;fill-opacity:1;fill-rule:nonzero;stroke:none"
             id="path64" />
        </g>
        <g
           id="g66"
           transform="translate(212.3988,121.9077)">
          <path
             d="m 0,0 v 4.066 c -2.236,0.711 -4.778,1.169 -6.862,1.169 -3.812,0 -5.997,-1.27 -5.997,-4.269 0,-3.101 2.134,-4.168 5.184,-4.168 3.05,0 5.642,1.118 7.675,3.202 M 4.778,10.165 V -6.404 H 0.661 l -0.254,2.49 c -2.287,-2.033 -5.236,-3.253 -9.251,-3.253 -5.642,0 -8.844,2.897 -8.844,7.98 0,5.032 3.71,8.183 9.962,8.183 3.05,0 5.287,-0.406 7.726,-1.22 v 2.695 c 0,4.269 -2.135,6.251 -6.76,6.251 -3.355,0 -6.252,-0.66 -8.59,-1.779 v 4.473 c 2.541,1.017 5.591,1.677 8.743,1.677 8.081,0 11.385,-3.558 11.385,-10.928"
             style="fill:#ffffff;fill-opacity:1;fill-rule:nonzero;stroke:none"
             id="path68" />
        </g>
        <g
           id="g70"
           transform="translate(240.8237,120.23)">
          <path
             d="m 0,0 v -3.964 c -2.287,-0.966 -4.574,-1.322 -7.268,-1.322 -5.998,0 -8.641,3.1 -8.641,9.759 v 13.063 h -4.422 v 4.422 h 4.473 l 1.322,6.455 h 3.405 V 21.958 H -0.559 V 17.536 H -11.131 V 4.829 c 0,-4.32 1.423,-5.947 5.54,-5.947 1.728,0 3.863,0.407 5.591,1.118"
             style="fill:#ffffff;fill-opacity:1;fill-rule:nonzero;stroke:none"
             id="path72" />
        </g>
        <g
           id="g74"
           transform="translate(276.6903,129.2271)">
          <path
             d="m 0,0 c 0,6.048 -2.745,9.606 -7.319,9.606 -3.304,0 -6.15,-1.83 -7.777,-3.863 V -9.556 c 2.186,-0.61 4.27,-0.762 6.354,-0.762 C -2.542,-10.318 0,-6.201 0,0 m 4.829,0.203 c 0,-8.59 -4.473,-14.689 -13.47,-14.689 -3.557,0 -7.268,0.255 -11.233,1.677 v 37.205 h 4.778 V 10.165 c 2.186,2.338 5.134,3.608 8.845,3.608 6.962,0 11.08,-4.878 11.08,-13.57"
             style="fill:#ffffff;fill-opacity:1;fill-rule:nonzero;stroke:none"
             id="path76" />
        </g>
        <g
           id="g78"
           transform="translate(300.4911,142.6958)">
          <path
             d="m 0,0 v -4.625 c -0.915,0.305 -1.779,0.406 -2.847,0.406 -3.151,0 -5.692,-1.677 -7.573,-4.574 v -18.399 h -4.778 v 26.684 h 4.117 l 0.509,-3.354 c 2.236,2.947 5.286,4.167 8.234,4.167 C -1.576,0.305 -0.661,0.203 0,0"
             style="fill:#ffffff;fill-opacity:1;fill-rule:nonzero;stroke:none"
             id="path80" />
        </g>
        <path
           d="m 303.938,142.188 h 4.778 v -26.685 h -4.778 z m -0.965,9.047 c 0,2.084 1.473,3.456 3.354,3.456 1.931,0 3.355,-1.372 3.355,-3.456 0,-2.084 -1.424,-3.405 -3.355,-3.405 -1.881,0 -3.354,1.321 -3.354,3.405"
           style="fill:#ffffff;fill-opacity:1;fill-rule:nonzero;stroke:none"
           id="path82" />
        <g
           id="g84"
           transform="translate(333.7641,120.23)">
          <path
             d="m 0,0 v -3.964 c -2.287,-0.966 -4.574,-1.322 -7.268,-1.322 -5.998,0 -8.641,3.1 -8.641,9.759 v 13.063 h -4.422 v 4.422 h 4.473 l 1.322,6.455 h 3.405 V 21.958 H -0.559 V 17.536 H -11.131 V 4.829 c 0,-4.32 1.423,-5.947 5.54,-5.947 1.728,0 3.863,0.407 5.591,1.118"
             style="fill:#ffffff;fill-opacity:1;fill-rule:nonzero;stroke:none"
             id="path86" />
        </g>
        <g
           id="g88"
           transform="translate(354.1381,121.9077)">
          <path
             d="m 0,0 v 4.066 c -2.236,0.711 -4.778,1.169 -6.862,1.169 -3.812,0 -5.997,-1.27 -5.997,-4.269 0,-3.101 2.134,-4.168 5.184,-4.168 3.05,0 5.642,1.118 7.675,3.202 M 4.777,10.165 V -6.404 H 0.661 l -0.255,2.49 c -2.287,-2.033 -5.235,-3.253 -9.25,-3.253 -5.642,0 -8.844,2.897 -8.844,7.98 0,5.032 3.71,8.183 9.962,8.183 3.05,0 5.287,-0.406 7.726,-1.22 v 2.695 c 0,4.269 -2.135,6.251 -6.76,6.251 -3.355,0 -6.252,-0.66 -8.59,-1.779 v 4.473 c 2.541,1.017 5.591,1.677 8.743,1.677 8.081,0 11.384,-3.558 11.384,-10.928"
             style="fill:#ffffff;fill-opacity:1;fill-rule:nonzero;stroke:none"
             id="path90" />
        </g>
        <path
           d="m 365.038,142.188 h 4.777 v -26.685 h -4.777 z m -0.965,9.047 c 0,2.084 1.473,3.456 3.354,3.456 1.932,0 3.355,-1.372 3.355,-3.456 0,-2.084 -1.423,-3.405 -3.355,-3.405 -1.881,0 -3.354,1.321 -3.354,3.405"
           style="fill:#ffffff;fill-opacity:1;fill-rule:nonzero;stroke:none"
           id="path92" />
        <g
           id="g94"
           transform="translate(400.0795,131.9712)">
          <path
             d="m 0,0 v -16.468 h -4.778 v 16.011 c 0,4.98 -2.237,7.268 -6.455,7.268 -2.795,0 -5.693,-1.22 -7.828,-3.812 v -19.467 h -4.777 v 26.685 h 4.117 l 0.407,-2.847 c 2.439,2.44 5.54,3.659 8.996,3.659 C -3.304,11.029 0,7.167 0,0"
             style="fill:#ffffff;fill-opacity:1;fill-rule:nonzero;stroke:none"
             id="path96" />
        </g>
      </g>
    </g>
  </g>
</svg>
