<svg width="298" height="133" viewBox="0 0 298 133" fill="none" xmlns="http://www.w3.org/2000/svg">
<mask id="mask0_8_3" style="mask-type:luminance" maskUnits="userSpaceOnUse" x="0" y="0" width="298" height="133">
<path d="M0 0H298V132.634H0V0Z" fill="white"/>
</mask>
<g mask="url(#mask0_8_3)">
<path d="M262.731 37.0484H263.641C264.253 37.0484 264.783 36.9669 264.783 36.2191C264.783 35.5666 264.185 35.4579 263.655 35.4579H262.731V37.0484ZM261.698 34.6695H263.764C265.096 34.6695 265.817 35.1317 265.817 36.3005C265.817 37.2522 265.273 37.7144 264.362 37.7962L265.857 40.2296H264.797L263.356 37.8368H262.731V40.2296H261.698V34.6695ZM267.298 37.47C267.298 35.1723 265.64 33.5139 263.587 33.5139C261.534 33.5139 259.876 35.1723 259.876 37.47C259.876 39.7674 261.534 41.4261 263.587 41.4261C265.64 41.4261 267.298 39.7674 267.298 37.47ZM258.679 37.47C258.679 34.7643 260.882 32.5622 263.587 32.5622C266.292 32.5622 268.495 34.7643 268.495 37.47C268.495 40.1751 266.292 42.3777 263.587 42.3777C260.882 42.3777 258.679 40.1751 258.679 37.47Z" fill="#0071BB"/>
<path d="M108.964 72.7216L114.2 77.2087H118.571V45.2665H108.964V72.7216Z" fill="#0071BB"/>
<path d="M148.751 50.825C154.625 50.825 160.56 54.2235 160.56 54.2235L162.598 48.0627C162.598 48.0627 155.702 44.1034 148.407 44.1034C136.397 44.1034 128.185 51.772 128.185 61.1798C128.185 70.5876 136.397 78.2562 148.407 78.2562C155.702 78.2562 162.598 74.2969 162.598 74.2969L160.56 68.1358C160.56 68.1358 154.625 71.5346 148.751 71.5346C141.715 71.5346 136.815 66.8985 136.815 61.1798C136.815 55.4611 141.715 50.825 148.751 50.825Z" fill="#0071BB"/>
<path d="M118.571 34.1528H108.964V42.0578H118.571V34.1528Z" fill="#0071BB"/>
<path d="M68.4801 34.1527V77.2085H78.0864V61.234V34.1527H68.4801Z" fill="#0071BB"/>
<path d="M243.021 71.5344C235.986 71.5344 230.786 66.8984 230.786 61.1797C230.786 55.461 235.986 50.8252 243.021 50.8252C250.057 50.8252 254.957 55.461 254.957 61.1797C254.957 66.8984 250.057 71.5344 243.021 71.5344ZM243.364 44.1033C238.279 44.1033 234.277 45.9243 231.31 48.4448V34.1526H221.703V77.2087H229.12L230.786 72.6532C232.604 75.5497 238.279 78.2561 243.364 78.2561C255.375 78.2561 263.587 70.5875 263.587 61.1797C263.587 51.7718 255.273 44.1033 243.364 44.1033Z" fill="#0071BB"/>
<path d="M165.716 77.2085H175.322V34.1528H165.716V77.2085Z" fill="#0071BB"/>
<path d="M207.782 61.1797C207.782 66.8439 203.001 71.443 196.076 71.5304C189.55 71.4438 189.438 68.899 189.438 63.279V59.0471V45.2666H179.831V59.0471V63.279C179.831 67.4756 180.369 72.3727 183.728 75.2527C186.151 77.3302 189.39 77.9655 192.464 78.1667C195.729 78.3803 198.896 78.1966 201.985 77.0058C203.795 76.3083 205.712 75.2767 207.124 73.8648C207.265 73.7241 208.186 72.8586 208.111 72.6533L209.777 77.2085H217.194V45.2666H207.782V61.1797Z" fill="#0071BB"/>
<path d="M105.474 45.2665H94.6667L78.0866 61.2342L96.7221 77.2087H109.296L89.7788 60.4819L105.474 45.2665Z" fill="#0071BB"/>
<path d="M53.9264 57.7321C51.2301 56.9191 44.7156 55.387 44.8267 53.1364C45.1745 48.6742 55.0312 50.0713 60.9037 51.2789L62.9594 45.1718C59.1908 44.5967 54.3812 44.0577 51.5406 44.1031C44.2181 44.1505 35.7655 46.053 35.5264 53.6795C35.751 64.4594 56.235 62.9709 56.8762 68.5651C56.8762 69.5361 56.2715 70.355 55.0271 71.0691C50.3815 73.4966 42.7645 71.8148 36.5691 69.803L34.413 76.2079C39.6588 77.4541 45.5893 78.2754 49.3501 78.2562C56.6593 78.2751 66.2322 75.7324 66.484 68.0502C66.484 61.8894 58.6154 59.1463 53.9264 57.7321Z" fill="#0071BB"/>
<path d="M41.7167 93.0196C41.7167 91.9355 41.0391 91.3781 39.8794 91.3781C38.7049 91.3781 38.0421 91.9355 38.0421 93.0196C38.0421 94.104 38.7049 94.661 39.8794 94.661C41.0391 94.661 41.7167 94.104 41.7167 93.0196ZM38.5843 98.0044C37.9518 98.2604 37.5301 98.682 37.5301 99.2846C37.5301 99.9771 38.1026 100.384 39.6839 100.384C41.7318 100.384 42.3946 99.9021 42.3946 99.1036C42.3946 98.5315 42.0181 98.3057 41.1295 98.2301L38.5843 98.0044ZM43.7798 91.0919C43.2678 91.0919 42.7709 91.0919 42.2589 91.1221C42.8011 91.6042 43.0571 92.3117 43.0571 93.0045C43.0571 94.6459 41.8672 95.7757 39.8794 95.7757C39.3372 95.7757 38.8554 95.7004 38.4489 95.5647C38.238 95.7155 38.1177 95.9262 38.1177 96.1369C38.1177 96.5134 38.3734 96.7244 39.0513 96.7845L41.491 96.9955C42.816 97.1158 43.7196 97.6731 43.7196 98.9833C43.7196 100.55 42.1985 101.513 39.6839 101.513C37.3947 101.513 36.2048 100.821 36.2048 99.5101C36.2048 98.6521 36.702 98.0044 37.5002 97.613C37.0484 97.2968 36.8075 96.9048 36.8075 96.4083C36.8075 95.8809 37.0333 95.4293 37.5301 95.0527C36.9882 94.5707 36.702 93.893 36.702 93.0347C36.702 91.3932 37.8765 90.2638 39.8794 90.2638C40.2107 90.2638 40.512 90.3091 40.7831 90.3542C41.8222 90.0229 42.8462 89.857 43.7798 89.857V91.0919Z" fill="#0071BB"/>
<path d="M49.4643 90.3541V91.7245C49.1932 91.6341 48.9372 91.6042 48.6207 91.6042C47.6871 91.6042 46.9342 92.1011 46.3769 92.9594V98.4109H44.9612V90.5046H46.1811L46.3319 91.4984C46.9944 90.6252 47.8981 90.2638 48.7715 90.2638C48.9973 90.2638 49.2684 90.294 49.4643 90.3541Z" fill="#0071BB"/>
<path d="M51.127 93.7577H55.4342C55.3589 92.1915 54.6511 91.4985 53.4011 91.4985C52.1963 91.4985 51.3229 92.2819 51.127 93.7577ZM56.8496 94.1793V94.9322H51.1119C51.2627 96.4984 52.1812 97.3718 53.9282 97.3718C54.847 97.3718 55.5696 97.2361 56.428 96.8599V98.1701C55.5545 98.4862 54.8316 98.637 53.7021 98.637C51.0669 98.637 49.6663 97.0856 49.6663 94.4804C49.6663 91.9654 51.0968 90.2638 53.4313 90.2638C55.6298 90.2638 56.8496 91.604 56.8496 94.1793Z" fill="#0071BB"/>
<path d="M62.9317 96.5134V95.3087C62.2692 95.0981 61.516 94.9624 60.8986 94.9624C59.7691 94.9624 59.1217 95.3386 59.1217 96.2272C59.1217 97.146 59.754 97.4622 60.6577 97.4622C61.5614 97.4622 62.3293 97.1309 62.9317 96.5134ZM64.3474 93.5016V98.4109H63.1276L63.0523 97.6731C62.3747 98.2755 61.5009 98.637 60.3113 98.637C58.6396 98.637 57.6909 97.7786 57.6909 96.2726C57.6909 94.7816 58.7902 93.848 60.6426 93.848C61.5462 93.848 62.2091 93.9683 62.9317 94.2095V93.411C62.9317 92.1461 62.2991 91.5589 60.9288 91.5589C59.9347 91.5589 59.0764 91.7544 58.3836 92.086V90.7607C59.1365 90.4593 60.0402 90.2638 60.9741 90.2638C63.3684 90.2638 64.3474 91.318 64.3474 93.5016Z" fill="#0071BB"/>
<path d="M71.3537 97.0105V98.185C70.6761 98.4712 69.9985 98.5767 69.2003 98.5767C67.4232 98.5767 66.6401 97.6582 66.6401 95.6852V91.8148H65.3299V90.5046H66.6552L67.0469 88.592H68.0557V90.5046H71.1881V91.8148H68.0557V95.5797C68.0557 96.8597 68.4774 97.3418 69.6972 97.3418C70.2092 97.3418 70.8418 97.2212 71.3537 97.0105Z" fill="#0071BB"/>
<path d="M81.9807 94.3448C81.9807 92.5528 81.1674 91.4986 79.8122 91.4986C78.8332 91.4986 77.99 92.0408 77.5079 92.6432V97.1761C78.1556 97.3569 78.7731 97.4019 79.3905 97.4019C81.2275 97.4019 81.9807 96.1821 81.9807 94.3448ZM83.4115 94.2846C83.4115 96.8298 82.0862 98.6368 79.4205 98.6368C78.3665 98.6368 77.267 98.5613 76.0922 98.14V87.1165H77.5079V91.333C78.1556 90.6403 79.0291 90.264 80.1286 90.264C82.1914 90.264 83.4115 91.7093 83.4115 94.2846Z" fill="#0071BB"/>
<path d="M89.0326 90.3541V91.7245C88.7615 91.6341 88.5055 91.6042 88.1891 91.6042C87.2555 91.6042 86.5026 92.1011 85.9453 92.9594V98.4109H84.5296V90.5046H85.7494L85.9002 91.4984C86.5627 90.6252 87.4664 90.2638 88.3399 90.2638C88.5657 90.2638 88.8368 90.294 89.0326 90.3541Z" fill="#0071BB"/>
<path d="M90.0539 90.5046H91.4696V98.4111H90.0539V90.5046ZM89.768 87.824C89.768 87.2066 90.2044 86.8001 90.7618 86.8001C91.3339 86.8001 91.7558 87.2066 91.7558 87.824C91.7558 88.4415 91.3339 88.8329 90.7618 88.8329C90.2044 88.8329 89.768 88.4415 89.768 87.824Z" fill="#0071BB"/>
<path d="M98.8911 97.0105V98.185C98.2135 98.4712 97.5359 98.5767 96.7377 98.5767C94.9605 98.5767 94.1774 97.6582 94.1774 95.6852V91.8148H92.8672V90.5046H94.1925L94.5842 88.592H95.5931V90.5046H98.7255V91.8148H95.5931V95.5797C95.5931 96.8597 96.0147 97.3418 97.2345 97.3418C97.7465 97.3418 98.3791 97.2212 98.8911 97.0105Z" fill="#0071BB"/>
<path d="M104.928 96.5134V95.3087C104.265 95.0981 103.512 94.9624 102.895 94.9624C101.765 94.9624 101.118 95.3386 101.118 96.2272C101.118 97.146 101.75 97.4622 102.654 97.4622C103.557 97.4622 104.325 97.1309 104.928 96.5134ZM106.343 93.5016V98.4109H105.124L105.048 97.6731C104.37 98.2755 103.497 98.637 102.307 98.637C100.636 98.637 99.687 97.7786 99.687 96.2726C99.687 94.7816 100.786 93.848 102.639 93.848C103.542 93.848 104.205 93.9683 104.928 94.2095V93.411C104.928 92.1461 104.295 91.5589 102.925 91.5589C101.931 91.5589 101.072 91.7544 100.38 92.086V90.7607C101.133 90.4593 102.036 90.2638 102.97 90.2638C105.364 90.2638 106.343 91.318 106.343 93.5016Z" fill="#0071BB"/>
<path d="M108.157 90.5046H109.573V98.4111H108.157V90.5046ZM107.871 87.824C107.871 87.2066 108.308 86.8001 108.865 86.8001C109.438 86.8001 109.859 87.2066 109.859 87.824C109.859 88.4415 109.438 88.8329 108.865 88.8329C108.308 88.8329 107.871 88.4415 107.871 87.824Z" fill="#0071BB"/>
<path d="M118.54 93.5317V98.411H117.124V93.6671C117.124 92.1916 116.461 91.5137 115.211 91.5137C114.383 91.5137 113.525 91.8752 112.892 92.6431V98.411H111.477V90.5045H112.697L112.817 91.3481C113.54 90.6251 114.459 90.2639 115.483 90.2639C117.561 90.2639 118.54 91.4082 118.54 93.5317Z" fill="#0071BB"/>
</g>
</svg>
