<svg viewBox="0 0 620 200" xmlns="http://www.w3.org/2000/svg" height="77.41935484" width="240"><defs><linearGradient id="a" x1="100%" x2="0%" y1="50%" y2="50%"><stop offset="0%" stop-color="#4A90E2"/><stop offset="100%" stop-color="#4A90E2" stop-opacity=".25"/><stop offset="100%" stop-color="#00ACFD"/></linearGradient><linearGradient id="b" x1="42.331%" x2="75.829%" y1="-1.578%" y2="86.884%"><stop offset="0%" stop-color="#4A90E2"/><stop offset="24.928%" stop-color="#4A90E2"/><stop offset="100%" stop-color="#4A90E2" stop-opacity="0"/><stop offset="100%" stop-color="#7748FF"/></linearGradient></defs><g fill="none" fill-rule="evenodd"><g fill="#4A90E2"><path d="M419.12 109.692h.093c0-3.292.05-6.585-.017-9.876-.049-2.452-.08-4.924-.42-7.344-.606-4.306-3.023-7.179-7.343-8.238-4.578-1.12-9.172-1.098-13.76-.049-4.252.972-6.8 3.637-7.505 7.914a41.781 41.781 0 0 0-.53 6.359c-.065 6.722-.047 13.446-.012 20.169.013 2.36.063 4.73.276 7.08.514 5.683 3.478 8.816 9.078 9.764 3.689.626 7.376.567 11.065-.009 4.776-.744 7.646-3.4 8.663-8.14.223-1.036.385-2.109.394-3.165.041-4.822.018-9.643.018-14.465zm-10.59-39.38c1.958.308 3.931.546 5.874.935 11.096 2.22 17.473 9.224 18.591 20.537.296 2.993.348 6.018.363 9.028.035 7.609.03 15.217-.053 22.825-.046 4.102-.742 8.113-2.322 11.93-2.409 5.814-6.751 9.639-12.656 11.464-8.884 2.746-17.928 2.807-26.866.283-9.42-2.661-14.191-9.41-15.455-18.834-.393-2.93-.521-5.913-.544-8.873-.06-7.747-.063-15.495.047-23.241.065-4.515.74-8.948 2.616-13.13 2.513-5.6 6.826-9.187 12.591-10.938 2.813-.854 5.787-1.168 8.688-1.731.353-.069.7-.168 1.051-.254h8.075zm-160.653 43.147c-1.376-6.14-2.728-12.182-4.084-18.223-.678-3.02-1.339-6.047-2.053-9.06-.373-1.569-1.127-2.794-2.921-3.121-3.48-.636-5.176.426-5.949 3.855-1.474 6.539-2.947 13.079-4.41 19.62-.51 2.28-.992 4.567-1.504 6.929h20.92zm-7.238-43.146c.719.126 1.436.27 2.159.376 5.546.81 9.107 4.022 10.628 9.293 1.566 5.419 2.874 10.915 4.176 16.404 3.99 16.84 7.925 33.693 11.876 50.542.072.308.09.63.15 1.064-4.52 0-8.967.019-13.413-.043-.29-.003-.742-.575-.83-.95-1.508-6.491-3.008-12.985-4.415-19.498-.243-1.126-.718-1.354-1.76-1.35-7.887.039-15.773.056-23.656-.013-1.258-.01-1.63.45-1.868 1.562-1.368 6.427-2.8 12.84-4.213 19.257-.07.313-.18.617-.303 1.036H205v-.278c.101-.248.236-.488.297-.746 3.804-16.269 7.583-32.545 11.414-48.807 1.411-5.99 2.807-11.99 4.474-17.91 1.242-4.416 3.93-7.76 8.586-9.045 1.46-.402 2.974-.601 4.464-.894h6.404zm251.748 0c2.278.368 4.596.575 6.823 1.146 2.854.731 5.633 1.753 8.397 2.636v13.273c-2.078-.748-4.075-1.602-6.147-2.189-6.136-1.736-12.38-2.29-18.71-1.27-3.574.573-5.334 2.99-3.95 7.108.572 1.702 1.89 3.33 3.261 4.554 5.017 4.476 10.263 8.694 15.296 13.153 3.254 2.882 6.576 5.77 9.357 9.086 5.12 6.105 5.45 16.723 1.069 23.078-2.804 4.065-6.992 6.041-11.632 6.966-10.864 2.168-21.566 1.522-32.015-2.348-.953-.353-1.367-.8-1.346-1.884.074-3.89.028-7.784.028-11.708 2.987.881 5.825 1.874 8.738 2.546 6.324 1.46 12.746 2.004 19.185.987 5.57-.879 7.37-5.552 3.823-9.993-1.573-1.97-3.594-3.601-5.511-5.275-6.113-5.336-12.432-10.45-18.37-15.973-6.271-5.83-8.024-13.248-6.136-21.498 1.324-5.781 5.374-9.056 10.807-10.672 2.553-.759 5.258-1.003 7.894-1.484.358-.065.71-.16 1.066-.239h8.073zm29.02 1.131h13.85v30.206c3.76-.174 7.353-.22 10.92-.564 1.661-.16 2.714-1.551 3.381-3.037 2.03-4.514 4.019-9.044 5.993-13.583 1.753-4.03 3.447-8.088 5.22-12.109.181-.406.732-.918 1.115-.923 4.914-.062 9.83-.041 14.92-.041-.206.494-.34.867-.513 1.222-4.76 9.88-9.519 19.76-14.288 29.635-1.056 2.188-2.258 4.27-4.745 5.538 3.386 1.612 4.563 4.742 5.986 7.657 5.049 10.357 10.054 20.737 15.072 31.108.197.408.37.829.64 1.44h-5.501c-3.015 0-6.031-.033-9.046.022-.871.016-1.272-.258-1.63-1.065a6363.858 6363.858 0 0 0-12.463-27.876c-.36-.8-.768-1.584-1.227-2.333-.924-1.512-2.238-2.488-4.066-2.508-3.186-.037-6.37-.01-9.683-.01v33.683h-13.935V71.444zM337.568 84.491H317.48V71.48h54.218v12.974h-19.967v63.457h-14.163zm-59.605-13.046h13.962v58.867c0 3.946.634 4.578 4.6 4.578h25.858v13.104h-1.42c-9.929 0-19.858.078-29.784-.055-2.504-.033-5.081-.47-7.474-1.211-2.912-.9-4.54-3.302-5.17-6.222a26.476 26.476 0 0 1-.601-5.507c-.04-20.784-.026-41.57-.024-62.354 0-.362.031-.724.053-1.2M589.094 147.95h13.847V71.509h-13.847zM445.73 132.244c-4.437 0-8.186 3.73-8.187 8.17-.001 4.501 3.686 8.172 8.199 8.172h.03c4.443-.016 8.117-3.692 8.138-8.14.022-4.384-3.71-8.16-8.103-8.202h-.076m.004 0v3.477l.038.001c2.494.024 4.672 2.224 4.66 4.707-.013 2.527-2.153 4.67-4.691 4.68a4.701 4.701 0 0 1-3.338-1.385 4.645 4.645 0 0 1-1.383-3.31c0-2.499 2.202-4.692 4.712-4.693l.002-3.477M596.023 47c-4.44 0-8.188 3.73-8.189 8.17-.001 4.501 3.686 8.172 8.199 8.172h.03c4.443-.015 8.117-3.692 8.14-8.14.02-4.383-3.711-8.16-8.104-8.202h-.076zm0 0 .042 3.479c2.493.023 4.67 2.223 4.659 4.706-.013 2.527-2.153 4.67-4.691 4.679-1.257 0-2.44-.49-3.336-1.384a4.638 4.638 0 0 1-1.384-3.31c0-2.499 2.2-4.693 4.71-4.693V47z"/></g><path d="M26.892 122.96.002 138.709h122.214V122.96z" fill="url(#a)" transform="translate(15 30)"/><path d="M92.813 30 15 168.71h17.942L102 46.465z" fill="#4A90E2"/><path d="m86.914 16.303 17.64 31.638L90.8 55.616 77.9 32.53z" fill="url(#b)" transform="translate(15 30)"/><path d="M135.852 168.707V152.96c6 0 12.243-4.88 12.243-10.88 0-6-4.88-10.881-10.88-10.881h-22.279c-14.683 0-26.627-11.948-26.627-26.63 0-14.681 11.944-26.629 26.627-26.629h22.278v15.748h-22.278c-6 0-10.88 4.88-10.88 10.88 0 6 4.88 10.883 10.88 10.883h22.278c14.683 0 26.63 11.945 26.63 26.628 0 14.684-11.947 26.628-26.63 26.628h-1.362z" fill="#4A90E2"/></g></svg>